<svg width="42" height="42" viewBox="0 0 42 42" fill="none" xmlns="http://www.w3.org/2000/svg">
<path d="M34.281 11.7005C32.5333 11.3267 30.9507 10.4044 29.7639 9.06807C28.5772 7.73177 27.8483 6.05134 27.6835 4.27175V3.5H21.6547V27.426C21.651 28.4852 21.3154 29.5167 20.6953 30.3754C20.0751 31.2341 19.2015 31.8769 18.1971 32.2135C17.1928 32.5501 16.1082 32.5635 15.0959 32.2519C14.0835 31.9403 13.1942 31.3193 12.553 30.4762C11.9017 29.6191 11.5405 28.5767 11.5216 27.5004C11.5027 26.4241 11.8272 25.3697 12.4479 24.4902C13.0686 23.6107 13.9534 22.9518 14.9738 22.609C15.9943 22.2662 17.0974 22.2573 18.1232 22.5837V16.4587C15.8357 16.1425 13.5066 16.5492 11.4616 17.6219C9.41658 18.6946 7.75802 20.3797 6.71789 22.4415C5.67776 24.5032 5.30808 26.8385 5.66055 29.1207C6.01302 31.4029 7.07002 33.5179 8.68371 35.1697C10.2226 36.7443 12.1958 37.8246 14.3514 38.2727C16.5069 38.7208 18.7472 38.5164 20.7861 37.6856C22.825 36.8548 24.5701 35.4353 25.7986 33.6082C27.0271 31.7811 27.6833 29.6294 27.6835 27.4277V15.2022C30.1199 16.9441 33.0412 17.8781 36.0362 17.8727V11.8825C35.4464 11.8832 34.8581 11.8222 34.281 11.7005Z" fill="white"/>
</svg>
