<?xml version="1.0" encoding="UTF-8"?>
<svg id="_레이어_2" data-name="레이어 2" xmlns="http://www.w3.org/2000/svg" viewBox="0 0 68.35 87.64">
  <defs>
    <style>
      .cls-1 {
        fill: #0f3060;
      }
    </style>
  </defs>
  <g id="Layer_1" data-name="Layer 1">
    <g>
      <path class="cls-1" d="M24.79,38.05C11.1,38.05,0,49.15,0,62.84s11.1,24.79,24.79,24.79,24.79-11.1,24.79-24.79-11.1-24.79-24.79-24.79ZM24.79,77.62c-8.16,0-14.77-6.61-14.77-14.77s6.61-14.77,14.77-14.77,14.77,6.61,14.77,14.77-6.61,14.77-14.77,14.77Z"/>
      <path class="cls-1" d="M44.63.09h0c2.73,0,4.95,2.22,4.95,4.95v57.8h-9.91V5.04c0-2.73,2.22-4.95,4.95-4.95Z"/>
      <path class="cls-1" d="M39.93,6.02c1.47,5.19,4.8,9.85,8.6,13.61,3.66,3.62,8.45,7.15,13.68,7.89,2.6.37,5.23-.64,5.99-3.4.63-2.28-.78-5.62-3.4-5.99-6.73-.95-13.69-8.42-15.47-14.69-1.71-6.02-11.11-3.46-9.4,2.59h0Z"/>
    </g>
  </g>
</svg>